<?xml version="1.0" standalone="no"?>
<!DOCTYPE svg PUBLIC "-//W3C//DTD SVG 20010904//EN"
 "http://www.w3.org/TR/2001/REC-SVG-20010904/DTD/svg10.dtd">
<svg version="1.0" xmlns="http://www.w3.org/2000/svg"
 width="302.000000pt" height="302.000000pt" viewBox="0 0 302.000000 302.000000"
 preserveAspectRatio="xMidYMid meet">
<metadata>
Created by potrace 1.11, written by Peter Selinger 2001-2013
</metadata>
<g transform="translate(0.000000,302.000000) scale(0.100000,-0.100000)"
fill="#000000" stroke="none">
<path d="M1331 2373 c-31 -32 -59 -92 -170 -368 -277 -689 -333 -823 -383
-912 -89 -161 -171 -225 -289 -225 -127 0 -199 85 -199 234 0 134 59 246 176
333 71 53 139 80 253 100 47 9 110 20 140 25 62 11 95 37 111 87 16 47 4 87
-35 122 -43 37 -82 45 -199 38 -212 -12 -444 -129 -573 -290 -67 -83 -96 -136
-129 -232 -37 -109 -40 -265 -7 -371 60 -191 223 -304 436 -304 157 0 272 43
385 146 121 109 181 226 412 801 74 182 137 330 141 327 4 -2 10 -23 14 -47
10 -59 39 -123 63 -136 32 -17 91 -13 126 9 18 10 72 62 120 115 49 53 90 94
93 92 2 -3 -52 -137 -121 -299 -69 -162 -131 -317 -137 -345 -22 -95 12 -166
94 -198 36 -13 75 -16 219 -13 160 3 179 5 205 24 70 51 80 148 20 184 -27 17
-51 20 -141 20 -98 0 -108 2 -103 18 2 9 87 220 187 467 209 514 213 530 158
590 -29 32 -42 38 -86 43 -94 9 -126 -11 -319 -201 -95 -94 -175 -168 -177
-166 -1 2 -11 36 -20 74 -59 245 -89 295 -178 295 -45 0 -54 -4 -87 -37z"/>
<path d="M2552 1801 c-66 -23 -152 -82 -199 -135 -175 -203 -136 -530 70 -591
81 -24 272 -20 344 7 71 26 156 108 196 189 113 226 53 457 -136 528 -74 27
-199 28 -275 2z m180 -213 c43 -21 60 -108 37 -179 -15 -42 -53 -94 -85 -116
-32 -21 -127 -20 -159 1 -62 40 -50 164 22 245 56 62 125 81 185 49z"/>
</g>
</svg>
